<svg width="100%" viewBox="0 0 364 236" fill="white" xmlns="http://www.w3.org/2000/svg" style="display: inline-block; vertical-align: middle;"><g><rect width="364" height="236" fill="#f1f2f2"></rect><rect width="364" height="20" fill="#fff"></rect><rect width="30" height="8" fill="#b92b27" y="6" x="10"></rect><rect width="364" height="1" fill="#dee0e1" y="19"></rect><rect x="66" y="33" width="201" height="35" rx="3" fill="#fff" stroke="#dee0e1"></rect><rect x="66" y="78" width="201" height="115" rx="3" fill="#fff" stroke="#dee0e1"></rect><rect x="245" y="92" width="8" height="8" rx="3" fill="#2e69ff"></rect><rect x="80" y="116" width="75" height="8" rx="4" fill="#282829"></rect><rect x="80" y="128" width="137" height="8" rx="4" fill="#282829"></rect><rect x="91" y="93" width="23" height="6" rx="3" fill="#636466"></rect><rect x="80" y="92" width="8" height="8" rx="4" fill="#636466"></rect><rect x="66" y="203" width="201" height="115" rx="3" fill="#fff" stroke="#dee0e1"></rect><rect x="91" y="218" width="23" height="6" rx="3" fill="#939598"></rect><rect x="80" y="217" width="8" height="8" rx="4" fill="#939598"></rect><rect x="279" y="33" width="70" height="210" rx="3" fill="#fff" stroke="#dee0e1"></rect><rect x="298" y="49" width="41" height="6" rx="3" fill="#939598"></rect><rect x="287" y="48" width="8" height="8" rx="4" fill="#939598"></rect><rect x="298" y="71" width="28" height="6" rx="3" fill="#939598"></rect><rect x="287" y="70" width="8" height="8" rx="4" fill="#939598"></rect><rect x="298" y="93" width="28" height="6" rx="3" fill="#939598"></rect><rect x="287" y="92" width="8" height="8" rx="4" fill="#939598"></rect><rect x="298" y="115" width="36" height="6" rx="3" fill="#939598"></rect><rect x="287" y="114" width="8" height="8" rx="4" fill="#939598"></rect><rect x="22" y="44" width="28" height="6" rx="3" fill="#939598"></rect><rect x="11" y="43" width="8" height="8" rx="4" fill="#939598"></rect><rect x="22" y="65" width="32" height="6" rx="3" fill="#939598"></rect><rect x="11" y="64" width="8" height="8" rx="4" fill="#939598"></rect><rect x="22" y="86" width="28" height="6" rx="3" fill="#939598"></rect><rect x="11" y="85" width="8" height="8" rx="4" fill="#939598"></rect><rect x="22" y="107" width="23" height="6" rx="3" fill="#939598"></rect><rect x="11" y="106" width="8" height="8" rx="4" fill="#939598"></rect><rect x="80" y="46" width="75" height="8" rx="4" fill="#939598" opacity="0.5"></rect></g></svg>