<svg width="24" height="24" viewBox="0 0 24 24" fill="none" xmlns="http://www.w3.org/2000/svg"><g class="icon_svg-stroke" stroke="#666" stroke-width="1.5" stroke-linecap="round" stroke-linejoin="round" stroke-miterlimit="10"><path d="M8.7 13.9c0-1.1 1.1-2.8 3.3-2.8 2.2 0 3.3 1.7 3.3 2.8V21H8.7v-7.1Z"></path><path d="M8.7 21H3v-8.2C3 11.7 4.1 10 6.3 10c1.6 0 2.6.9 3 1.8m5.3.1C15 11 16 10 17.7 10c2.2 0 3.3 1.7 3.3 2.8V21h-6m3.2-13.1a2.2 2.2 0 1 0 0-4.4 2.2 2.2 0 0 0 0 4.4Zm-6.2 1a2.2 2.2 0 1 0 0-4.4 2.2 2.2 0 0 0 0 4.4Zm-6.2-1a2.2 2.2 0 1 0 0-4.4 2.2 2.2 0 0 0 0 4.4Z"></path></g></svg>