<svg width="24" height="24" viewBox="0 0 24 24" xmlns="http://www.w3.org/2000/svg"><path d="M2.5 9.5 12 5l9.5 4.5L12 14 2.5 9.5Zm17.5 1v6M6.5 12v3c0 1.505 2.502 3 5.5 3s5.5-1.501 5.5-3v-3m2.5 4.5L18 20h4l-2-3.5Z" class="icon_svg-stroke" stroke="#666" stroke-width="1.5" fill="none" stroke-linecap="round" stroke-linejoin="round"></path><svg width="24" height="24" viewBox="0 0 24 24" xmlns="http://www.w3.org/2000/svg"><path d="M20.5 11v7a1 1 0 0 1-1 1h-15a1 1 0 0 1-1-1v-7m6.906 4H5.625C4.451 15 3.5 13.977 3.5 12.714V7h17v5.714c0 1.263-.951 2.286-2.125 2.286h-4.781M9 7V6a2 2 0 0 1 2-2h2a2 2 0 0 1 2 2v1m-4 6.5h2a.5.5 0 0 1 .5.5v2a.5.5 0 0 1-.5.5h-2a.5.5 0 0 1-.5-.5v-2a.5.5 0 0 1 .5-.5Z" class="icon_svg-stroke" stroke="#666" stroke-width="1.5" fill="none" stroke-linecap="round" stroke-linejoin="round"></path></svg></svg>