<svg width="24" height="24" viewBox="0 0 24 24" xmlns="http://www.w3.org/2000/svg"><g fill="none" class="icon_svg-stroke icon_svg-fill" fill-rule="evenodd" stroke-linecap="round" stroke="#666" stroke-width="1.5" stroke-linejoin="round"><path d="M13 15.4V19h4v2H7v-2h4v-3.6h0M17 4h4v4.8c0 1.767-1.343 3.2-3 3.2a2.83 2.83 0 0 1-1.158-.247M7 4l.158 7.753A2.83 2.83 0 0 1 6 12c-1.657 0-3-1.433-3-3.2V4h4Z"></path><path d="M7 10.5V3h10v7.5a5 5 0 0 1-10 0h0Z"></path><path d="M9.418 8c-.168 1.53-.118 2.667.151 3.413.27.746.817 1.33 1.642 1.75"></path></g></svg>