<svg xmlns="http://www.w3.org/2000/svg" width="24" height="24" viewBox="0 0 24 24"><path class="icon_svg-fill_as_stroke" d="M7.162 13.978c.091-1.415.458-3.007 1.258-4.755 2.046-4.463 6.605-6.837 12.521-6.525.376.02.665.348.646.733s-.335.688-.718.661c-2.518-.136-8.661.153-11.212 5.723-.705 1.54-1.042 2.931-1.139 4.163h2.563a.48.48 0 0 1 .473.484.48.48 0 0 1-.473.484h-.478v.707h.304c.243 0 .391.206.441.451l.961 5.074c.038.272-.197.45-.439.45H5.11c-.242 0-.473-.216-.44-.45l.902-5.074c.048-.262.199-.451.441-.451h.363v-.707h-.478a.48.48 0 0 1-.473-.484.48.48 0 0 1 .473-.484h1.263zm2.263-1.495a13.02 13.02 0 0 1 1.712-3.9c2.105-2.878 5.636-3.849 9.015-3.938.148-.004.276.19.181.322-.823 1.149-1.865 2.192-3.045 2.952-.776.501-1.635.852-2.507 1.14-.841.278-3.647.564-.56.798.144.011.279.179.181.322-1.049 1.526-3.392.975-4.627 2.512-.139.172-.401-.014-.35-.208z" fill="#666"></path></svg>