<svg xmlns="http://www.w3.org/2000/svg" width="24" height="24" fill="none" fill-rule="evenodd" viewBox="0 0 24 24"><path class="icon_svg-fill_as_stroke" d="M20.25 14.339a2.496 2.496 0 0 0-.723.63l-1.761 2.262a2.5 2.5 0 0 0-3.932 3.019H7.5a3.75 3.75 0 0 1-3.75-3.75v-9A3.75 3.75 0 0 1 7.5 3.75h9a3.75 3.75 0 0 1 3.75 3.75v6.839zM8 7.75a.75.75 0 0 0-.75.75v4a.75.75 0 0 0 .75.75h4a.75.75 0 0 0 .75-.75v-4a.75.75 0 0 0-.75-.75H8zm6.5 2H16a.75.75 0 1 0 0-1.5h-1.5a.75.75 0 1 0 0 1.5zm0 3H16a.75.75 0 1 0 0-1.5h-1.5a.75.75 0 1 0 0 1.5zM8 16.25h8a.75.75 0 1 0 0-1.5H8a.75.75 0 1 0 0 1.5z" fill="#666" fill-rule="nonzero"></path><path class="icon_svg-stroke" stroke="#666" stroke-width="1.5" stroke-linecap="round" stroke-linejoin="round" d="m16 18.995 2 2 3.5-4.495"></path></svg>