<svg xmlns="http://www.w3.org/2000/svg" width="24" height="24" viewBox="0 0 24 24"><path class="icon_svg-fill_as_stroke" d="m10.526 17.352-1.002-3.031H5.162l-1.018 3.031H2L6.205 5.5h2.382l4.214 11.852h-2.275zM7.281 7.759l-1.626 4.887h3.376l-1.61-4.887h-.14zm10.415 8.14c1.232 0 2.152-.797 2.152-1.84v-.715l-2.029.131c-1.142.074-1.676.485-1.676 1.216 0 .756.649 1.207 1.552 1.207zm-.6 1.602c-1.733 0-2.973-1.051-2.973-2.694 0-1.626 1.224-2.563 3.409-2.694l2.316-.14v-.756c0-.879-.591-1.372-1.692-1.372-.936 0-1.577.329-1.766.936h-1.922c.164-1.585 1.651-2.595 3.786-2.595 2.308 0 3.606 1.125 3.606 3.031v6.136h-1.963V16.12h-.14c-.501.871-1.487 1.38-2.661 1.38z" fill="#666" fill-rule="evenodd"></path></svg>