<svg width="36" height="36" viewBox="0 0 24 24" fill="none" xmlns="http://www.w3.org/2000/svg">
<path d="M21 12C21 7.02944 16.9706 3 12 3M21 12H16.7038M21 12C21 16.9706 16.9706 21 12 21M12 3C7.02944 3 3 7.02944 3 12M12 3C10.2272 4.23274 8.88499 5.94062 8.09693 7.8873M12 3C13.7741 4.23362 15.1169 5.94306 15.9048 7.89147M12 3V8.30654M3 12H7.29623M3 12C3 16.9706 7.02944 21 12 21M8.09693 7.8873C7.57509 9.17637 7.29623 10.5701 7.29623 12M8.09693 7.8873C7.13571 7.67713 6.19103 7.38876 5.2725 7.024M8.09693 7.8873C9.3762 8.167 10.6848 8.30819 12 8.30654M7.29623 12H12M7.29623 12C7.29623 13.4299 7.57509 14.8236 8.09693 16.1127M16.7038 12C16.7038 10.5717 16.4255 9.17937 15.9048 7.89147M16.7038 12H12M16.7038 12C16.7038 13.4283 16.4255 14.8206 15.9048 16.1085M15.9048 7.89147C14.6321 8.16857 13.3305 8.30831 12.0225 8.3065C12.015 8.30652 12.0075 8.30653 12 8.30654M15.9048 7.89147C16.8277 7.69052 17.7355 7.41733 18.6195 7.0735M12 8.30654V12M12 12V15.6935M12 21C10.2272 19.7673 8.88499 18.0594 8.09693 16.1127M12 21C13.7741 19.7664 15.1169 18.0569 15.9048 16.1085M12 21V15.6935M8.09693 16.1127C7.13571 16.3229 6.19103 16.6112 5.2725 16.976M8.09693 16.1127C9.3762 15.833 10.6848 15.6918 12 15.6935M15.9048 16.1085C14.6321 15.8314 13.3305 15.6917 12.0225 15.6935C12.015 15.6935 12.0075 15.6935 12 15.6935M15.9048 16.1085C16.8277 16.3095 17.7355 16.5827 18.6195 16.9265" stroke="#636466" stroke-width="1.1" stroke-linecap="round" stroke-linejoin="round"/>
</svg>
