<svg xmlns="http://www.w3.org/2000/svg" width="20" height="20" viewBox="0 0 20 20"><path d="M17.762 7.28 15.76 9.32a3.245 3.245 0 0 1-4.003.51l-1.501 1.53c.334.51.5 1.105.5 1.7 0 .935-.334 1.785-1.001 2.38l-2.002 2.04c-1.251 1.275-3.419 1.275-4.754 0a3.43 3.43 0 0 1 0-4.845l2.002-2.04c.667-.68 1.501-1.02 2.335-1.02.584 0 1.168.17 1.668.51l1.418-1.445a3.403 3.403 0 0 1 .5-4.08l2.002-2.04c.667-.68 1.501-1.02 2.335-1.02.917 0 1.751.34 2.335 1.02 1.501 1.36 1.501 3.485.167 4.76zM6.253 11.87l-2.002 2.04c-.667.68-.667 1.7 0 2.38.334.34.751.51 1.168.51s.834-.17 1.168-.51l2.002-2.04c.334-.34.5-.765.5-1.19 0-.17 0-.255-.083-.425l-.751.765-1.168-1.19.751-.765c-.584-.17-1.168 0-1.585.425zm10.341-8.16c-.667-.68-1.751-.68-2.335 0l-2.002 2.04c-.417.425-.584 1.105-.417 1.615l.751-.765 1.168 1.19-.751.765c.167 0 .25.085.417.085.417 0 .834-.17 1.168-.51l2.002-2.04c.667-.595.667-1.7 0-2.38z" fill="#666"></path></svg>