<svg width="42" height="42" viewBox="0 0 24 24" fill="none" xmlns="http://www.w3.org/2000/svg">
<path fill-rule="evenodd" clip-rule="evenodd" d="M19 17.2238V17.8519C19 18.2104 18.7095 18.5 18.3502 18.5H5.64977C5.29108 18.5 5 18.2113 5 17.8519V17.2238C5 16.9555 5.11104 16.7044 5.30205 16.5239C5.31309 16.5116 5.32463 16.4996 5.33664 16.4881C5.35109 16.4742 5.37707 16.4486 5.40833 16.4174C5.47145 16.3545 5.53903 16.2854 5.60908 16.2122C5.82705 15.9842 6.03317 15.7535 6.21879 15.5283C6.38873 15.3222 6.53505 15.1282 6.65514 14.9495C6.79508 14.7413 6.89584 14.5588 6.9537 14.4113C7.0516 14.1616 7.13048 13.7018 7.1774 13.0898C7.21761 12.5653 7.23283 11.9785 7.22532 11.413C7.22329 11.3566 7.22226 11.3001 7.22224 11.2471C7.22581 8.61806 9.3644 6.5 12 6.5C14.6356 6.5 16.7742 8.61806 16.7777 11.2305C16.7777 11.3001 16.7767 11.3566 16.7749 11.4054C16.7672 11.9785 16.7824 12.5653 16.8226 13.0898C16.8695 13.7018 16.9484 14.1616 17.0463 14.4113C17.1042 14.5588 17.2049 14.7413 17.3449 14.9495C17.4649 15.1282 17.6113 15.3222 17.7812 15.5283C17.9668 15.7535 18.173 15.9842 18.3909 16.2122C18.461 16.2854 18.5285 16.3545 18.5917 16.4174C18.6229 16.4486 18.6489 16.4742 18.6634 16.4881C18.6739 16.4982 18.684 16.5086 18.6938 16.5193C18.8874 16.6999 19 16.9529 19 17.2238Z" stroke="#636466" stroke-width="1"/>
<path d="M12 6.5C12.8284 6.5 13.5 5.82843 13.5 5C13.5 4.17157 12.8284 3.5 12 3.5C11.1716 3.5 10.5 4.17157 10.5 5C10.5 5.82843 11.1716 6.5 12 6.5Z" stroke="#636466" stroke-width="1"/>
<path fill-rule="evenodd" clip-rule="evenodd" d="M11.9999 21.25C13.3806 21.25 14.5 20.1306 14.5 18.7499C14.5384 18.7499 9.49487 18.7499 9.49982 18.7499C9.49982 20.1306 10.6191 21.25 11.9999 21.25Z" stroke="#636466" stroke-width="1"/>
</svg>
