<svg width="50" height="46" viewBox="0 0 50 46" fill="none" xmlns="http://www.w3.org/2000/svg">
<path d="M32.5 23C31.8574 21.7149 33.1302 20.4486 34.5655 20.3834L38.927 20.1851C41.1638 20.0835 43.0484 21.8375 43.1073 24.0758L43.397 35.0856C43.4542 37.2608 41.7622 39.0828 39.5886 39.1863L36.6366 39.3268C34.8856 39.4102 33.5748 37.7007 34 36V36C34.5 34 36 32 35.5 28.5C35.0482 25.3377 33.7134 25.4269 32.5 23V23Z" fill="none"/>
<path d="M11.8841 39.1296C13.6283 39.3628 17.4759 39.7623 19.0001 39.0002C21.0001 38.0002 17.8693 26.2723 21.0001 24.0001C21.8203 23.4048 22.0391 22.922 21.9425 22.5318C21.7878 21.9079 17.7572 20.2524 17.1475 20.0491C17.0509 20.0169 16.9476 20.0105 16.8478 20.0305L12.7594 20.8483C12.3124 20.9377 11.9824 21.3182 11.9571 21.7734L11.0498 38.1056C11.0215 38.6148 11.3786 39.062 11.8841 39.1296Z" fill="none"/>
<rect x="22" y="23" width="10" height="16" rx="3" fill="none"/>
<path d="M11.3023 7.36003C9.1556 10.3245 9.25782 12.5734 11.5067 14.6178C14.0623 16.9689 19.8889 17.3778 19.8889 15.2311C19.8889 14.5156 18.9689 14.3111 17.7423 14.6178C15.0845 15.3334 12.7334 14.5156 12.7334 12.88C12.7334 11.1423 17.5378 8.99559 18.3556 10.2223C19.3778 11.96 20.9112 11.3467 20.9112 9.20003C20.9112 5.11114 13.8578 3.68003 11.3023 7.36003Z" fill="#808080"/>
<path d="M35.0179 6.2356C33.9956 6.74671 33.1779 8.17782 33.1779 9.20004C33.1779 11.3467 34.7112 11.96 35.7334 10.2223C36.5512 8.89337 37.5734 8.89337 39.8223 10.6312C42.5823 12.6756 40.2312 15.64 36.449 14.6178C34.7112 14.2089 34.0979 14.4134 34.609 15.2312C35.0179 15.8445 36.3467 16.3556 37.5734 16.3556C38.8001 16.3556 40.4356 16.7645 41.2534 17.2756C42.0712 17.7867 43.1956 17.9912 43.9112 17.7867C45.4445 17.1734 44.3201 8.9956 42.3779 6.74671C40.9467 4.90671 37.5734 4.70226 35.0179 6.2356Z" fill="#808080"/>
<path d="M22.9556 10.2223C20.5023 12.6756 20.4001 14.1067 22.5468 17.1734C25.5112 21.4667 33.1779 18.9112 33.1779 13.5956C33.1779 11.5512 29.2934 8.17782 27.0445 8.17782C25.9201 8.17782 24.0801 9.09782 22.9556 10.2223ZM31.1334 15.3334C31.1334 17.1734 27.1468 18.5023 25.0001 17.3778C21.729 15.64 22.649 14.3112 27.0445 14.3112C29.2934 14.3112 31.1334 14.72 31.1334 15.3334Z" fill="#808080"/>
<path d="M11.8134 20.8534C9.87116 23 9.56449 24.1245 9.87116 31.28L10.1778 39.3556L14.5734 39.6623C17.1289 39.8667 18.8667 39.56 18.8667 38.9467C18.8667 38.3334 17.2312 37.8223 15.2889 37.8223H11.7112V30.7689C11.7112 21.0578 13.4489 19.32 20.4 22.08C22.4445 22.7956 22.4445 22.7956 20.5023 20.6489C17.9467 17.6845 14.6756 17.7867 11.8134 20.8534Z" fill="#808080"/>
<path d="M33.7912 19.9334C31.3379 21.7734 32.2579 23 35.0179 21.5689C40.129 18.8089 42.3779 21.5689 42.3779 30.7689V37.8223H38.8001C36.8579 37.8223 35.2223 38.3334 35.2223 38.9467C35.2223 39.56 36.9601 39.8667 39.6179 39.6623L43.9112 39.3556L44.2179 31.0756C44.5246 23.1023 44.4223 22.5912 41.7646 20.5467C38.5957 18.0934 36.449 17.8889 33.7912 19.9334Z" fill="#808080"/>
<path d="M23.16 23.1023C21.2178 24.4311 20.9111 25.5556 20.9111 32.3023V39.8667H27.0445H33.1778V32.3023C33.1778 25.5556 32.8711 24.4311 30.9289 23.1023C29.7022 22.1823 27.9645 21.4667 27.0445 21.4667C26.1245 21.4667 24.3867 22.1823 23.16 23.1023ZM29.9067 24.7378C30.6222 25.4534 31.1334 28.6223 31.1334 31.8934V37.8223H27.0445H22.9556V31.8934C22.9556 25.8623 24.08 23.5111 27.0445 23.5111C27.9645 23.5111 29.1911 24.0223 29.9067 24.7378Z" fill="#808080"/>
</svg>
