<?xml version="1.0" encoding="utf-8"?>
<!-- Generator: Adobe Illustrator 25.0.1, SVG Export Plug-In . SVG Version: 6.00 Build 0)  -->
<svg version="1.1" id="Layer_1" xmlns="http://www.w3.org/2000/svg" xmlns:xlink="http://www.w3.org/1999/xlink" x="0px" y="0px"
	 viewBox="0 0 41 41" style="enable-background:new 0 0 41 41;" xml:space="preserve">
<style type="text/css">
	.st0{fill:none;}
	.st1{fill:#B92B27;}
</style>
<rect x="0.5" y="0.5" class="st0" width="40" height="40"/>
<g>
	<path class="st1" d="M35.434,17.861c-2.41,0-4.367-1.921-4.435-4.315v-1.681h-1.332v1.681c-0.068,2.394-2.025,4.315-4.435,4.315
		H23.67v1.332h1.561c2.41,0,4.367,1.921,4.435,4.315v1.681h1.332v-1.681c0.068-2.394,2.025-4.315,4.435-4.315h1.561v-1.332H35.434z"
		/>
	<path class="st1" d="M14.427,26.854c-0.666-1.311-1.447-2.635-2.972-2.635c-0.291,0-0.582,0.048-0.849,0.17l-0.518-1.036
		c0.631-0.541,1.65-0.971,2.961-0.971c2.039,0,3.085,0.982,3.916,2.235c0.493-1.07,0.728-2.515,0.728-4.307
		c0-4.474-1.399-6.771-4.667-6.771c-3.22,0-4.612,2.297-4.612,6.771c0,4.45,1.391,6.723,4.612,6.723
		C13.537,27.034,14.001,26.978,14.427,26.854z M15.225,28.415c-0.706,0.189-1.456,0.294-2.2,0.294c-4.288,0-8.487-3.422-8.487-8.398
		c0-5.024,4.198-8.446,8.487-8.446c4.36,0,8.519,3.398,8.519,8.446c0,2.808-1.31,5.089-3.215,6.564
		c0.615,0.922,1.249,1.534,2.131,1.534c0.963,0,1.351-0.744,1.416-1.327h1.254c0.073,0.777-0.315,4.005-3.819,4.005
		C17.188,31.087,16.067,29.858,15.225,28.415z"/>
</g>
</svg>
