<svg xmlns="http://www.w3.org/2000/svg" width="24" height="24" viewBox="0 0 24 24"><path class="icon_svg-fill_as_stroke" d="M11.746 9.04c-1.482 0-2.355 1.122-2.355 3.009 0 1.877.885 3.02 2.333 3.02 1.515 0 2.488-1.176 2.488-3.02S13.25 9.04 11.746 9.04zM12.133 3C17.362 3 21 6.257 21 10.938c0 3.516-1.614 5.748-4.157 5.748-1.294 0-2.3-.755-2.432-1.812h-.177c-.475 1.1-1.471 1.715-2.764 1.715-2.3 0-3.848-1.844-3.848-4.584 0-2.621 1.581-4.454 3.848-4.454 1.161 0 2.156.582 2.587 1.521h.177V7.756h1.67v6.331c0 .755.453 1.197 1.249 1.197 1.393 0 2.289-1.715 2.289-4.368 0-3.893-3.029-6.557-7.452-6.557-4.323 0-7.43 3.214-7.43 7.7 0 4.605 3.052 7.571 7.784 7.571 1.515 0 3.007-.205 3.704-.518v1.359c-.995.334-2.333.528-3.726.528C6.615 21 3 17.506 3 11.995 3 6.656 6.715 3 12.133 3z" fill="#666" fill-rule="evenodd"></path></svg>