<svg width="24" height="24" viewBox="0 0 24 24" xmlns="http://www.w3.org/2000/svg"><g class="icon_svg-fill_as_stroke" fill="#666" fill-rule="evenodd"><path d="M19.5 9.1v11.5a.5.5 0 0 1-.5.5h-.5a.5.5 0 0 1-.5-.5v-11H7a.5.5 0 0 1-.5-.5v-.5a.5.5 0 0 1 .5-.5h12a.5.5 0 0 1 .5.5v.5Z"></path><path d="m6.5 8.852 3.565 3.565a.5.5 0 0 1 0 .708l-.354.353a.5.5 0 0 1-.707 0L4.761 9.235a.499.499 0 0 1-.145-.383.499.499 0 0 1 .145-.383l4.243-4.243a.5.5 0 0 1 .707 0l.354.354a.5.5 0 0 1 0 .707L6.5 8.852Z"></path></g></svg>