<svg xmlns="http://www.w3.org/2000/svg" width="24" height="24" viewBox="0 0 24 24" fill="#666"><path class="icon_svg-fill_as_stroke" d="m10.287 9.586.005-.191a3.896 3.896 0 1 0-7.792.001 3.896 3.896 0 0 0 3.896 3.896 3.88 3.88 0 0 0 1.376-.25c-.089.875-.302 1.643-.765 2.26-1.042 1.386-2.377 2.014-3.413 2.244-.277.062-.455.254-.44.534.015.268.251.415.515.42l.036-.001C4.993 18.431 6.5 17.5 8 16c1.472-1.472 2.313-3.784 2.287-6.414zm-1.403 7.297c-1.746 1.746-3.49 2.777-5.097 2.863l-.14.003c-.885-.015-1.688-.621-1.742-1.604-.048-.913.562-1.63 1.418-1.821.991-.22 1.954-.803 2.685-1.775a5.18 5.18 0 0 1-4.757-5.155 5.146 5.146 0 0 1 10.292 0l-.004.213c.021 2.918-.926 5.548-2.653 7.275zm12.653-7.297.005-.191a3.896 3.896 0 1 0-7.792.001 3.896 3.896 0 0 0 3.896 3.896 3.88 3.88 0 0 0 1.376-.25c-.089.875-.302 1.643-.765 2.26-1.042 1.386-2.377 2.014-3.413 2.244-.277.062-.455.254-.44.534.015.268.251.415.515.42l.036-.001C16.243 18.43 17.75 17.5 19.25 16c1.472-1.472 2.313-3.784 2.287-6.414zm-1.403 7.297c-1.746 1.746-3.49 2.777-5.097 2.863l-.14.003c-.885-.015-1.688-.621-1.742-1.604-.048-.913.562-1.63 1.418-1.821.991-.22 1.954-.803 2.685-1.775a5.18 5.18 0 0 1-4.757-5.155 5.146 5.146 0 0 1 10.292 0l-.004.213c.021 2.918-.926 5.548-2.653 7.275z"></path></svg>