<svg width="24" height="24" viewBox="0 0 24 24" xmlns="http://www.w3.org/2000/svg"><path d="m13.903 6.712-2.081 10.325a6.896 6.896 0 0 0-.086.798c0 .41.129.687.386.832.258.144.723.231 1.395.262L13.324 20H6.5l.236-1.071c.773-.03 1.327-.152 1.663-.365.336-.213.569-.638.698-1.276l2.081-10.325c.057-.395.086-.661.086-.798 0-.41-.129-.687-.386-.832-.258-.144-.723-.231-1.395-.262L9.676 4H16.5l-.236 1.071c-.773.03-1.327.152-1.663.365-.336.213-.569.638-.698 1.276Z" class="icon_svg-fill_as_stroke" fill="#666" fill-rule="evenodd"></path></svg>