<svg xmlns="http://www.w3.org/2000/svg" width="24" height="24" viewBox="0 0 24 24"><path class="icon_svg-fill_as_stroke" d="M16.316 10.241c-.006-.016.017-.042.041-.066l1.103-1.098c1.351-1.363.93-3.652-.816-4.443a2.767 2.767 0 0 0-3.098.545l-3.293 3.282c-.769.784-1 1.733-.662 2.775s1.087 1.658 2.165 1.874c.15.03.304.034.461.051v1.378l-.477-.032A4.07 4.07 0 0 1 9.073 13.1c-.771-.891-1.103-1.932-.994-3.103.093-1.002.513-1.853 1.229-2.563l3.25-3.23c.859-.847 1.906-1.246 3.11-1.199a4.01 4.01 0 0 1 2.678 1.128 4.01 4.01 0 0 1 1.302 3.112 3.996 3.996 0 0 1-1.161 2.77l-1.421 1.418a.256.256 0 0 1-.032.027l-.719-1.217zm-8.784 3.697-.973.969a2.744 2.744 0 0 0-.028 3.881 2.77 2.77 0 0 0 3.909.044l3.31-3.301c.764-.782.987-1.732.651-2.769s-1.083-1.651-2.155-1.871l-.137-.021V9.508c.383.031.511.031.774.111 1.639.502 2.648 1.578 2.973 3.237.274 1.395-.124 2.637-1.123 3.658l-3.311 3.301c-.725.715-1.607 1.101-2.625 1.175-2.082.152-3.982-1.284-4.365-3.323-.264-1.409.106-2.652 1.098-3.695l1.413-1.411c.011-.011.474.813.78 1.204l-.192.174z" fill="#666" fill-rule="evenodd"></path></svg>