<svg xmlns="http://www.w3.org/2000/svg" width="24" height="24" viewBox="0 0 24 24"><path class="icon_svg-fill_as_stroke" d="M7.089 12.5H5a.5.5 0 0 1-.5-.5v-.5A.5.5 0 0 1 5 11h2.089l-.68-.68a.5.5 0 0 1 0-.707l.354-.354a.5.5 0 0 1 .707 0l2.121 2.121a.5.5 0 0 1 .146.369.5.5 0 0 1-.146.369L7.47 14.241a.5.5 0 0 1-.707 0l-.354-.354a.5.5 0 0 1 0-.707l.68-.68zM5 5.5h14a.5.5 0 0 1 .5.5v.5a.5.5 0 0 1-.5.5H5a.5.5 0 0 1-.5-.5V6a.5.5 0 0 1 .5-.5zm6 5.5h8a.5.5 0 0 1 .5.5v.5a.5.5 0 0 1-.5.5h-8a.5.5 0 0 1-.5-.5v-.5a.5.5 0 0 1 .5-.5zm-6 5.5h14a.5.5 0 0 1 .5.5v.5a.5.5 0 0 1-.5.5H5a.5.5 0 0 1-.5-.5V17a.5.5 0 0 1 .5-.5z" fill="#666" fill-rule="evenodd"></path></svg>